<svg xmlns="http://www.w3.org/2000/svg" version="1.1" xmlns:xlink="http://www.w3.org/1999/xlink" xmlns:svgjs="http://svgjs.dev/svgjs" width="1500" height="1500" viewBox="0 0 1500 1500"><rect width="1500" height="1500" fill="#edebd7"></rect><g transform="matrix(0.6666666666666666,0,0,0.6666666666666666,249.69672392591326,244.3741935483871)"><svg viewBox="0 0 246 248" data-background-color="#edebd7" preserveAspectRatio="xMidYMid meet" height="1512" width="1500" xmlns="http://www.w3.org/2000/svg" xmlns:xlink="http://www.w3.org/1999/xlink"><g id="tight-bounds" transform="matrix(1,0,0,1,0.07460591422534435,0.4000000000000057)"><svg viewBox="0 0 245.85078817154928 247.2" height="247.2" width="245.85078817154928"><g><svg viewBox="0 0 395.52 397.69058593286456" height="247.2" width="245.85078817154928"><g transform="matrix(1,0,0,1,0,266.70772324790016)"><svg viewBox="0 0 395.52 130.98286268496437" height="130.98286268496437" width="395.52"><g id="textblocktransform"><svg viewBox="0 0 395.52 130.98286268496437" height="130.98286268496437" width="395.52" id="textblock"><g><svg viewBox="0 0 395.52 91.7873417721519" height="91.7873417721519" width="395.52"><g transform="matrix(1,0,0,1,0,0)"><svg width="395.52" viewBox="5.35 -40.4 177.74 41.25" height="91.7873417721519" data-palette-color="#423e37"><path d="M25.2-19.25Q32-17.05 32-10.25L32-10.25Q32-5.05 28.88-2.53 25.75 0 18.45 0L18.45 0 5.35 0 5.35-37.9 18.45-37.9Q25.1-37.9 27.8-35.4 30.5-32.9 30.5-27.75L30.5-27.75Q30.5-24.7 29.23-22.58 27.95-20.45 25.2-19.25L25.2-19.25ZM10.2-33.8L10.2-21.05 18.45-21.05Q25.5-21.05 25.55-27.4L25.55-27.4Q25.55-30.9 24-32.35 22.45-33.8 18.45-33.8L18.45-33.8 10.2-33.8ZM27.05-10.55Q27.05-13.9 24.88-15.43 22.7-16.95 18.45-16.95L18.45-16.95 10.2-16.95 10.2-4.1 18.45-4.1Q23.15-4.1 25.1-5.65 27.05-7.2 27.05-10.55L27.05-10.55ZM39.95-32.85L39.95-40.4 44.65-40.4 44.65-32.85 39.95-32.85ZM39.95 0L39.95-27.65 44.65-27.65 44.65 0 39.95 0ZM65.6 0.85Q61.2 0.85 58.12-1.07 55.05-3 53.5-6.33 51.95-9.65 51.95-13.8L51.95-13.8Q51.95-17.95 53.5-21.28 55.05-24.6 58.12-26.53 61.2-28.45 65.6-28.45L65.6-28.45Q70-28.45 73.07-26.53 76.15-24.6 77.67-21.28 79.2-17.95 79.2-13.8L79.2-13.8Q79.2-9.65 77.67-6.33 76.15-3 73.07-1.07 70 0.85 65.6 0.85L65.6 0.85ZM65.6-3.4Q69.75-3.4 72.02-6.3 74.3-9.2 74.3-13.8L74.3-13.8Q74.3-18.4 72.02-21.28 69.75-24.15 65.6-24.15L65.6-24.15Q61.45-24.15 59.15-21.28 56.85-18.4 56.85-13.8L56.85-13.8Q56.85-9.2 59.15-6.3 61.45-3.4 65.6-3.4L65.6-3.4ZM100.59-37.9Q112.99-37.9 112.99-26.6L112.99-26.6Q112.99-21.1 109.89-18.23 106.79-15.35 100.59-15.35L100.59-15.35 92.19-15.35 92.19 0 87.34 0 87.34-37.9 100.59-37.9ZM108.04-26.6Q108.04-30.3 106.19-31.98 104.34-33.65 100.59-33.65L100.59-33.65 92.19-33.65 92.19-19.65 100.59-19.65Q107.99-19.65 108.04-26.6L108.04-26.6ZM132.94-37.9Q142.29-37.9 147.06-33.08 151.84-28.25 151.84-18.9L151.84-18.9Q151.84-9.5 147.09-4.75 142.34 0 132.94 0L132.94 0 120.34 0 120.34-37.9 132.94-37.9ZM146.84-19.05Q146.84-26.55 143.34-30.1 139.84-33.65 132.94-33.65L132.94-33.65 125.19-33.65 125.19-4.25 132.94-4.25Q139.89-4.25 143.37-7.8 146.84-11.35 146.84-19.05L146.84-19.05ZM183.09-33.55L164.99-33.55 164.99-20.55 180.59-20.55 180.59-16.2 164.99-16.2 164.99 0 160.14 0 160.14-37.9 183.09-37.9 183.09-33.55Z" opacity="1" transform="matrix(1,0,0,1,0,0)" fill="#423e37" class="wordmark-text-0" data-fill-palette-color="primary" id="text-0"></path></svg></g></svg></g><g transform="matrix(1,0,0,1,75.54431999999998,113.45613026835444)"><svg viewBox="0 0 244.43136 17.526732416609942" height="17.526732416609942" width="244.43136"><g transform="matrix(1,0,0,1,0,0)"><svg width="244.43136" viewBox="4.5 -36.2 660.97 47.4" height="17.526732416609942" data-palette-color="#6e675f"><path d="M14.95 0L4.5 0 4.5-32.8 14.25-32.8Q16.75-32.8 18.82-32.35 20.9-31.9 22.38-30.95 23.85-30 24.68-28.48 25.5-26.95 25.5-24.8L25.5-24.8Q25.5-22.35 24.28-20.38 23.05-18.4 20.7-17.65L20.7-17.65 20.7-17.45Q23.7-16.9 25.55-14.95 27.4-13 27.4-9.6L27.4-9.6Q27.4-7.2 26.5-5.4 25.6-3.6 23.95-2.4 22.3-1.2 20-0.6 17.7 0 14.95 0L14.95 0ZM8.65-29.5L8.65-18.85 13.5-18.85Q17.7-18.85 19.55-20.3 21.4-21.75 21.4-24.25L21.4-24.25Q21.4-27.1 19.48-28.3 17.55-29.5 13.7-29.5L13.7-29.5 8.65-29.5ZM8.65-15.65L8.65-3.3 14.35-3.3Q18.6-3.3 20.95-4.88 23.3-6.45 23.3-9.75L23.3-9.75Q23.3-12.8 21-14.23 18.7-15.65 14.35-15.65L14.35-15.65 8.65-15.65ZM37.6 0L33.5 0 33.5-24.3 36.9-24.3 37.25-19.9 37.4-19.9Q38.65-22.2 40.42-23.55 42.2-24.9 44.3-24.9L44.3-24.9Q45.75-24.9 46.9-24.4L46.9-24.4 46.1-20.8Q45.5-21 45-21.1 44.5-21.2 43.75-21.2L43.75-21.2Q42.2-21.2 40.52-19.95 38.85-18.7 37.6-15.6L37.6-15.6 37.6 0ZM54.95 0L50.85 0 50.85-24.3 54.95-24.3 54.95 0ZM52.95-29.3L52.95-29.3Q51.75-29.3 50.92-30.05 50.1-30.8 50.1-31.95L50.1-31.95Q50.1-33.15 50.92-33.88 51.75-34.6 52.95-34.6L52.95-34.6Q54.15-34.6 54.97-33.88 55.8-33.15 55.8-31.95L55.8-31.95Q55.8-30.8 54.97-30.05 54.15-29.3 52.95-29.3ZM67.24 0L63.14 0 63.14-24.3 66.54-24.3 66.89-20.8 67.04-20.8Q68.79-22.55 70.72-23.73 72.64-24.9 75.19-24.9L75.19-24.9Q79.04-24.9 80.82-22.5 82.59-20.1 82.59-15.4L82.59-15.4 82.59 0 78.49 0 78.49-14.85Q78.49-18.3 77.39-19.83 76.29-21.35 73.89-21.35L73.89-21.35Q71.99-21.35 70.54-20.4 69.09-19.45 67.24-17.6L67.24-17.6 67.24 0ZM98.69 11.2L98.69 11.2Q96.44 11.2 94.59 10.78 92.74 10.35 91.42 9.5 90.09 8.65 89.37 7.45 88.64 6.25 88.64 4.65L88.64 4.65Q88.64 3.1 89.59 1.7 90.54 0.3 92.19-0.85L92.19-0.85 92.19-1.05Q91.29-1.6 90.67-2.58 90.04-3.55 90.04-5L90.04-5Q90.04-6.55 90.89-7.7 91.74-8.85 92.69-9.5L92.69-9.5 92.69-9.7Q91.49-10.7 90.52-12.38 89.54-14.05 89.54-16.25L89.54-16.25Q89.54-18.25 90.27-19.85 90.99-21.45 92.24-22.58 93.49-23.7 95.17-24.3 96.84-24.9 98.69-24.9L98.69-24.9Q99.69-24.9 100.57-24.73 101.44-24.55 102.14-24.3L102.14-24.3 110.59-24.3 110.59-21.15 105.59-21.15Q106.44-20.3 107.02-19 107.59-17.7 107.59-16.15L107.59-16.15Q107.59-14.2 106.89-12.63 106.19-11.05 104.99-9.98 103.79-8.9 102.17-8.3 100.54-7.7 98.69-7.7L98.69-7.7Q97.79-7.7 96.84-7.93 95.89-8.15 95.04-8.55L95.04-8.55Q94.39-8 93.94-7.33 93.49-6.65 93.49-5.65L93.49-5.65Q93.49-4.5 94.39-3.75 95.29-3 97.79-3L97.79-3 102.49-3Q106.74-3 108.87-1.63 110.99-0.25 110.99 2.8L110.99 2.8Q110.99 4.5 110.14 6.03 109.29 7.55 107.69 8.7 106.09 9.85 103.82 10.53 101.54 11.2 98.69 11.2ZM98.69-10.45L98.69-10.45Q99.74-10.45 100.67-10.85 101.59-11.25 102.32-12 103.04-12.75 103.44-13.83 103.84-14.9 103.84-16.25L103.84-16.25Q103.84-18.95 102.34-20.43 100.84-21.9 98.69-21.9L98.69-21.9Q96.54-21.9 95.04-20.43 93.54-18.95 93.54-16.25L93.54-16.25Q93.54-14.9 93.94-13.83 94.34-12.75 95.07-12 95.79-11.25 96.72-10.85 97.64-10.45 98.69-10.45ZM99.29 8.35L99.29 8.35Q101.04 8.35 102.47 7.93 103.89 7.5 104.89 6.83 105.89 6.15 106.44 5.25 106.99 4.35 106.99 3.4L106.99 3.4Q106.99 1.7 105.74 1.05 104.49 0.4 102.09 0.4L102.09 0.4 97.89 0.4Q97.19 0.4 96.37 0.33 95.54 0.25 94.74 0L94.74 0Q93.44 0.95 92.84 2 92.24 3.05 92.24 4.1L92.24 4.1Q92.24 6.05 94.12 7.2 95.99 8.35 99.29 8.35ZM119.79 0L115.69 0 115.69-24.3 119.79-24.3 119.79 0ZM117.79-29.3L117.79-29.3Q116.59-29.3 115.76-30.05 114.94-30.8 114.94-31.95L114.94-31.95Q114.94-33.15 115.76-33.88 116.59-34.6 117.79-34.6L117.79-34.6Q118.99-34.6 119.81-33.88 120.64-33.15 120.64-31.95L120.64-31.95Q120.64-30.8 119.81-30.05 118.99-29.3 117.79-29.3ZM132.09 0L127.99 0 127.99-24.3 131.39-24.3 131.74-20.8 131.89-20.8Q133.64-22.55 135.56-23.73 137.49-24.9 140.04-24.9L140.04-24.9Q143.89-24.9 145.66-22.5 147.44-20.1 147.44-15.4L147.44-15.4 147.44 0 143.34 0 143.34-14.85Q143.34-18.3 142.24-19.83 141.14-21.35 138.74-21.35L138.74-21.35Q136.84-21.35 135.39-20.4 133.94-19.45 132.09-17.6L132.09-17.6 132.09 0ZM163.53 11.2L163.53 11.2Q161.28 11.2 159.43 10.78 157.58 10.35 156.26 9.5 154.93 8.65 154.21 7.45 153.48 6.25 153.48 4.65L153.48 4.65Q153.48 3.1 154.43 1.7 155.38 0.3 157.03-0.85L157.03-0.85 157.03-1.05Q156.13-1.6 155.51-2.58 154.88-3.55 154.88-5L154.88-5Q154.88-6.55 155.73-7.7 156.58-8.85 157.53-9.5L157.53-9.5 157.53-9.7Q156.33-10.7 155.36-12.38 154.38-14.05 154.38-16.25L154.38-16.25Q154.38-18.25 155.11-19.85 155.83-21.45 157.08-22.58 158.33-23.7 160.01-24.3 161.68-24.9 163.53-24.9L163.53-24.9Q164.53-24.9 165.41-24.73 166.28-24.55 166.98-24.3L166.98-24.3 175.43-24.3 175.43-21.15 170.43-21.15Q171.28-20.3 171.86-19 172.43-17.7 172.43-16.15L172.43-16.15Q172.43-14.2 171.73-12.63 171.03-11.05 169.83-9.98 168.63-8.9 167.01-8.3 165.38-7.7 163.53-7.7L163.53-7.7Q162.63-7.7 161.68-7.93 160.73-8.15 159.88-8.55L159.88-8.55Q159.23-8 158.78-7.33 158.33-6.65 158.33-5.65L158.33-5.65Q158.33-4.5 159.23-3.75 160.13-3 162.63-3L162.63-3 167.33-3Q171.58-3 173.71-1.63 175.83-0.25 175.83 2.8L175.83 2.8Q175.83 4.5 174.98 6.03 174.13 7.55 172.53 8.7 170.93 9.85 168.66 10.53 166.38 11.2 163.53 11.2ZM163.53-10.45L163.53-10.45Q164.58-10.45 165.51-10.85 166.43-11.25 167.16-12 167.88-12.75 168.28-13.83 168.68-14.9 168.68-16.25L168.68-16.25Q168.68-18.95 167.18-20.43 165.68-21.9 163.53-21.9L163.53-21.9Q161.38-21.9 159.88-20.43 158.38-18.95 158.38-16.25L158.38-16.25Q158.38-14.9 158.78-13.83 159.18-12.75 159.91-12 160.63-11.25 161.56-10.85 162.48-10.45 163.53-10.45ZM164.13 8.35L164.13 8.35Q165.88 8.35 167.31 7.93 168.73 7.5 169.73 6.83 170.73 6.15 171.28 5.25 171.83 4.35 171.83 3.4L171.83 3.4Q171.83 1.7 170.58 1.05 169.33 0.4 166.93 0.4L166.93 0.4 162.73 0.4Q162.03 0.4 161.21 0.33 160.38 0.25 159.58 0L159.58 0Q158.28 0.95 157.68 2 157.08 3.05 157.08 4.1L157.08 4.1Q157.08 6.05 158.96 7.2 160.83 8.35 164.13 8.35ZM200.43 0L196.23 0 196.23-12.7 186.38-32.8 190.83-32.8 195.08-23.55Q195.88-21.75 196.63-20 197.38-18.25 198.23-16.4L198.23-16.4 198.43-16.4Q199.28-18.25 200.13-20 200.98-21.75 201.73-23.55L201.73-23.55 205.93-32.8 210.28-32.8 200.43-12.7 200.43 0ZM221.73 0.6L221.73 0.6Q219.48 0.6 217.45-0.25 215.43-1.1 213.88-2.73 212.33-4.35 211.4-6.73 210.48-9.1 210.48-12.1L210.48-12.1Q210.48-15.15 211.4-17.53 212.33-19.9 213.88-21.55 215.43-23.2 217.45-24.05 219.48-24.9 221.73-24.9L221.73-24.9Q223.98-24.9 226-24.05 228.03-23.2 229.58-21.55 231.13-19.9 232.05-17.53 232.98-15.15 232.98-12.1L232.98-12.1Q232.98-9.1 232.05-6.73 231.13-4.35 229.58-2.73 228.03-1.1 226-0.25 223.98 0.6 221.73 0.6ZM221.73-2.8L221.73-2.8Q223.28-2.8 224.58-3.48 225.88-4.15 226.8-5.38 227.73-6.6 228.23-8.3 228.73-10 228.73-12.1L228.73-12.1Q228.73-14.2 228.23-15.93 227.73-17.65 226.8-18.9 225.88-20.15 224.58-20.83 223.28-21.5 221.73-21.5L221.73-21.5Q220.18-21.5 218.88-20.83 217.58-20.15 216.65-18.9 215.73-17.65 215.23-15.93 214.73-14.2 214.73-12.1L214.73-12.1Q214.73-10 215.23-8.3 215.73-6.6 216.65-5.38 217.58-4.15 218.88-3.48 220.18-2.8 221.73-2.8ZM246.47 0.6L246.47 0.6Q242.57 0.6 240.8-1.8 239.02-4.2 239.02-8.9L239.02-8.9 239.02-24.3 243.17-24.3 243.17-9.45Q243.17-6 244.25-4.48 245.32-2.95 247.72-2.95L247.72-2.95Q249.62-2.95 251.07-3.93 252.52-4.9 254.27-7.05L254.27-7.05 254.27-24.3 258.37-24.3 258.37 0 254.97 0 254.62-3.8 254.47-3.8Q252.77-1.8 250.9-0.6 249.02 0.6 246.47 0.6ZM270.67 0L266.57 0 266.57-24.3 269.97-24.3 270.32-19.9 270.47-19.9Q271.72-22.2 273.5-23.55 275.27-24.9 277.37-24.9L277.37-24.9Q278.82-24.9 279.97-24.4L279.97-24.4 279.17-20.8Q278.57-21 278.07-21.1 277.57-21.2 276.82-21.2L276.82-21.2Q275.27-21.2 273.6-19.95 271.92-18.7 270.67-15.6L270.67-15.6 270.67 0ZM302.72 0L294.32 0 294.32-32.8 302.52-32.8Q310.12-32.8 314.07-28.6 318.02-24.4 318.02-16.55L318.02-16.55Q318.02-12.65 317.02-9.58 316.02-6.5 314.07-4.38 312.12-2.25 309.27-1.13 306.42 0 302.72 0L302.72 0ZM298.47-29.4L298.47-3.4 302.22-3.4Q307.97-3.4 310.84-6.85 313.72-10.3 313.72-16.55L313.72-16.55Q313.72-22.8 310.84-26.1 307.97-29.4 302.22-29.4L302.22-29.4 298.47-29.4ZM334.11 0.6L334.11 0.6Q331.86 0.6 329.84-0.25 327.81-1.1 326.26-2.73 324.71-4.35 323.79-6.73 322.86-9.1 322.86-12.1L322.86-12.1Q322.86-15.15 323.79-17.53 324.71-19.9 326.26-21.55 327.81-23.2 329.84-24.05 331.86-24.9 334.11-24.9L334.11-24.9Q336.36-24.9 338.39-24.05 340.41-23.2 341.96-21.55 343.51-19.9 344.44-17.53 345.36-15.15 345.36-12.1L345.36-12.1Q345.36-9.1 344.44-6.73 343.51-4.35 341.96-2.73 340.41-1.1 338.39-0.25 336.36 0.6 334.11 0.6ZM334.11-2.8L334.11-2.8Q335.66-2.8 336.96-3.48 338.26-4.15 339.19-5.38 340.11-6.6 340.61-8.3 341.11-10 341.11-12.1L341.11-12.1Q341.11-14.2 340.61-15.93 340.11-17.65 339.19-18.9 338.26-20.15 336.96-20.83 335.66-21.5 334.11-21.5L334.11-21.5Q332.56-21.5 331.26-20.83 329.96-20.15 329.04-18.9 328.11-17.65 327.61-15.93 327.11-14.2 327.11-12.1L327.11-12.1Q327.11-10 327.61-8.3 328.11-6.6 329.04-5.38 329.96-4.15 331.26-3.48 332.56-2.8 334.11-2.8ZM361.36 0.6L361.36 0.6Q358.96 0.6 356.86-0.25 354.76-1.1 353.24-2.73 351.71-4.35 350.84-6.73 349.96-9.1 349.96-12.1L349.96-12.1Q349.96-15.15 350.91-17.53 351.86-19.9 353.46-21.55 355.06-23.2 357.19-24.05 359.31-24.9 361.66-24.9L361.66-24.9Q364.06-24.9 365.76-24.05 367.46-23.2 368.76-22.05L368.76-22.05 366.66-19.35Q365.61-20.3 364.44-20.9 363.26-21.5 361.81-21.5L361.81-21.5Q360.16-21.5 358.76-20.83 357.36-20.15 356.36-18.9 355.36-17.65 354.79-15.93 354.21-14.2 354.21-12.1L354.21-12.1Q354.21-10 354.76-8.3 355.31-6.6 356.29-5.38 357.26-4.15 358.66-3.48 360.06-2.8 361.71-2.8L361.71-2.8Q363.41-2.8 364.84-3.53 366.26-4.25 367.41-5.25L367.41-5.25 369.21-2.5Q367.56-1.05 365.56-0.23 363.56 0.6 361.36 0.6ZM381.66 0.6L381.66 0.6Q377.76 0.6 375.98-1.8 374.21-4.2 374.21-8.9L374.21-8.9 374.21-24.3 378.36-24.3 378.36-9.45Q378.36-6 379.43-4.48 380.51-2.95 382.91-2.95L382.91-2.95Q384.81-2.95 386.26-3.93 387.71-4.9 389.46-7.05L389.46-7.05 389.46-24.3 393.56-24.3 393.56 0 390.16 0 389.81-3.8 389.66-3.8Q387.96-1.8 386.08-0.6 384.21 0.6 381.66 0.6ZM405.86 0L401.76 0 401.76-24.3 405.16-24.3 405.51-20.8 405.66-20.8Q407.26-22.55 409.13-23.73 411.01-24.9 413.21-24.9L413.21-24.9Q416.01-24.9 417.58-23.68 419.16-22.45 419.91-20.25L419.91-20.25Q421.81-22.35 423.73-23.63 425.66-24.9 427.91-24.9L427.91-24.9Q431.66-24.9 433.48-22.5 435.31-20.1 435.31-15.4L435.31-15.4 435.31 0 431.21 0 431.21-14.85Q431.21-18.3 430.11-19.83 429.01-21.35 426.71-21.35L426.71-21.35Q423.96-21.35 420.61-17.6L420.61-17.6 420.61 0 416.51 0 416.51-14.85Q416.51-18.3 415.41-19.83 414.31-21.35 411.96-21.35L411.96-21.35Q409.21-21.35 405.86-17.6L405.86-17.6 405.86 0ZM453.05 0.6L453.05 0.6Q450.6 0.6 448.48-0.28 446.35-1.15 444.78-2.78 443.2-4.4 442.3-6.75 441.4-9.1 441.4-12.1L441.4-12.1Q441.4-15.1 442.33-17.48 443.25-19.85 444.78-21.5 446.3-23.15 448.25-24.03 450.2-24.9 452.3-24.9L452.3-24.9Q454.6-24.9 456.43-24.1 458.25-23.3 459.48-21.8 460.7-20.3 461.35-18.2 462-16.1 462-13.5L462-13.5Q462-12.85 461.98-12.23 461.95-11.6 461.85-11.15L461.85-11.15 445.45-11.15Q445.7-7.25 447.88-4.98 450.05-2.7 453.55-2.7L453.55-2.7Q455.3-2.7 456.78-3.23 458.25-3.75 459.6-4.6L459.6-4.6 461.05-1.9Q459.45-0.9 457.5-0.15 455.55 0.6 453.05 0.6ZM445.4-14.1L445.4-14.1 458.4-14.1Q458.4-17.8 456.83-19.73 455.25-21.65 452.4-21.65L452.4-21.65Q451.1-21.65 449.93-21.15 448.75-20.65 447.8-19.68 446.85-18.7 446.23-17.3 445.6-15.9 445.4-14.1ZM472.1 0L468 0 468-24.3 471.4-24.3 471.75-20.8 471.9-20.8Q473.65-22.55 475.58-23.73 477.5-24.9 480.05-24.9L480.05-24.9Q483.9-24.9 485.68-22.5 487.45-20.1 487.45-15.4L487.45-15.4 487.45 0 483.35 0 483.35-14.85Q483.35-18.3 482.25-19.83 481.15-21.35 478.75-21.35L478.75-21.35Q476.85-21.35 475.4-20.4 473.95-19.45 472.1-17.6L472.1-17.6 472.1 0ZM503 0.6L503 0.6Q501.05 0.6 499.72 0 498.4-0.6 497.57-1.65 496.75-2.7 496.4-4.2 496.05-5.7 496.05-7.5L496.05-7.5 496.05-20.95 492.45-20.95 492.45-24.05 496.25-24.3 496.75-31.1 500.2-31.1 500.2-24.3 506.75-24.3 506.75-20.95 500.2-20.95 500.2-7.45Q500.2-5.2 501.02-3.98 501.85-2.75 503.95-2.75L503.95-2.75Q504.6-2.75 505.35-2.95 506.1-3.15 506.7-3.4L506.7-3.4 507.5-0.3Q506.5 0.05 505.32 0.33 504.15 0.6 503 0.6ZM518.1 0.6L518.1 0.6Q515.5 0.6 513.15-0.35 510.8-1.3 509.05-2.75L509.05-2.75 511.1-5.5Q512.7-4.2 514.37-3.4 516.05-2.6 518.25-2.6L518.25-2.6Q520.65-2.6 521.85-3.7 523.05-4.8 523.05-6.4L523.05-6.4Q523.05-7.35 522.55-8.05 522.05-8.75 521.27-9.28 520.5-9.8 519.5-10.2 518.5-10.6 517.5-11L517.5-11Q516.2-11.45 514.9-12.03 513.6-12.6 512.57-13.43 511.55-14.25 510.9-15.35 510.25-16.45 510.25-18L510.25-18Q510.25-19.45 510.82-20.73 511.4-22 512.47-22.93 513.55-23.85 515.1-24.38 516.65-24.9 518.6-24.9L518.6-24.9Q520.9-24.9 522.82-24.1 524.75-23.3 526.15-22.15L526.15-22.15 524.2-19.55Q522.95-20.5 521.6-21.1 520.25-21.7 518.65-21.7L518.65-21.7Q516.35-21.7 515.27-20.65 514.2-19.6 514.2-18.2L514.2-18.2Q514.2-17.35 514.65-16.73 515.1-16.1 515.85-15.63 516.6-15.15 517.57-14.78 518.55-14.4 519.6-14L519.6-14Q520.9-13.5 522.22-12.95 523.55-12.4 524.6-11.58 525.65-10.75 526.32-9.55 527-8.35 527-6.65L527-6.65Q527-5.15 526.42-3.85 525.85-2.55 524.72-1.55 523.6-0.55 521.92 0.03 520.25 0.6 518.1 0.6ZM550.34 0.6L550.34 0.6Q548.39 0.6 547.07 0 545.74-0.6 544.92-1.65 544.09-2.7 543.74-4.2 543.39-5.7 543.39-7.5L543.39-7.5 543.39-20.95 539.79-20.95 539.79-24.05 543.59-24.3 544.09-31.1 547.54-31.1 547.54-24.3 554.09-24.3 554.09-20.95 547.54-20.95 547.54-7.45Q547.54-5.2 548.37-3.98 549.19-2.75 551.29-2.75L551.29-2.75Q551.94-2.75 552.69-2.95 553.44-3.15 554.04-3.4L554.04-3.4 554.84-0.3Q553.84 0.05 552.67 0.33 551.49 0.6 550.34 0.6ZM568.34 0.6L568.34 0.6Q566.09 0.6 564.06-0.25 562.04-1.1 560.49-2.73 558.94-4.35 558.01-6.73 557.09-9.1 557.09-12.1L557.09-12.1Q557.09-15.15 558.01-17.53 558.94-19.9 560.49-21.55 562.04-23.2 564.06-24.05 566.09-24.9 568.34-24.9L568.34-24.9Q570.59-24.9 572.61-24.05 574.64-23.2 576.19-21.55 577.74-19.9 578.66-17.53 579.59-15.15 579.59-12.1L579.59-12.1Q579.59-9.1 578.66-6.73 577.74-4.35 576.19-2.73 574.64-1.1 572.61-0.25 570.59 0.6 568.34 0.6ZM568.34-2.8L568.34-2.8Q569.89-2.8 571.19-3.48 572.49-4.15 573.41-5.38 574.34-6.6 574.84-8.3 575.34-10 575.34-12.1L575.34-12.1Q575.34-14.2 574.84-15.93 574.34-17.65 573.41-18.9 572.49-20.15 571.19-20.83 569.89-21.5 568.34-21.5L568.34-21.5Q566.79-21.5 565.49-20.83 564.19-20.15 563.26-18.9 562.34-17.65 561.84-15.93 561.34-14.2 561.34-12.1L561.34-12.1Q561.34-10 561.84-8.3 562.34-6.6 563.26-5.38 564.19-4.15 565.49-3.48 566.79-2.8 568.34-2.8ZM614.88 0L596.38 0 596.38-32.8 600.53-32.8 600.53-3.55 614.88-3.55 614.88 0ZM624.38 0L620.28 0 620.28-24.3 624.38-24.3 624.38 0ZM622.38-29.3L622.38-29.3Q621.18-29.3 620.35-30.05 619.53-30.8 619.53-31.95L619.53-31.95Q619.53-33.15 620.35-33.88 621.18-34.6 622.38-34.6L622.38-34.6Q623.58-34.6 624.4-33.88 625.23-33.15 625.23-31.95L625.23-31.95Q625.23-30.8 624.4-30.05 623.58-29.3 622.38-29.3ZM637.38 0L633.28 0 633.28-20.95 629.98-20.95 629.98-24.05 633.28-24.3 633.28-28.15Q633.28-31.9 635-34.05 636.73-36.2 640.38-36.2L640.38-36.2Q641.53-36.2 642.55-35.98 643.58-35.75 644.43-35.4L644.43-35.4 643.53-32.25Q642.18-32.85 640.78-32.85L640.78-32.85Q637.38-32.85 637.38-28.15L637.38-28.15 637.38-24.3 642.53-24.3 642.53-20.95 637.38-20.95 637.38 0ZM656.52 0.6L656.52 0.6Q654.07 0.6 651.95-0.28 649.82-1.15 648.25-2.78 646.67-4.4 645.77-6.75 644.87-9.1 644.87-12.1L644.87-12.1Q644.87-15.1 645.8-17.48 646.72-19.85 648.25-21.5 649.77-23.15 651.72-24.03 653.67-24.9 655.77-24.9L655.77-24.9Q658.07-24.9 659.9-24.1 661.72-23.3 662.95-21.8 664.17-20.3 664.82-18.2 665.47-16.1 665.47-13.5L665.47-13.5Q665.47-12.85 665.45-12.23 665.42-11.6 665.32-11.15L665.32-11.15 648.92-11.15Q649.17-7.25 651.35-4.98 653.52-2.7 657.02-2.7L657.02-2.7Q658.77-2.7 660.25-3.23 661.72-3.75 663.07-4.6L663.07-4.6 664.52-1.9Q662.92-0.9 660.97-0.15 659.02 0.6 656.52 0.6ZM648.87-14.1L648.87-14.1 661.87-14.1Q661.87-17.8 660.3-19.73 658.72-21.65 655.87-21.65L655.87-21.65Q654.57-21.65 653.4-21.15 652.22-20.65 651.27-19.68 650.32-18.7 649.7-17.3 649.07-15.9 648.87-14.1Z" opacity="1" transform="matrix(1,0,0,1,0,0)" fill="#6e675f" class="slogan-text-1" data-fill-palette-color="secondary" id="text-1"></path></svg></g></svg></g></svg></g></svg></g><g transform="matrix(1,0,0,1,86.07492687225245,0)"><svg viewBox="0 0 223.3701462554951 223.3701462554951" height="223.3701462554951" width="223.3701462554951"><g><svg></svg></g><g id="icon-0"><svg viewBox="0 0 223.3701462554951 223.3701462554951" height="223.3701462554951" width="223.3701462554951"><g><path d="M0 111.685c0-61.682 50.003-111.685 111.685-111.685 61.682 0 111.685 50.003 111.685 111.685 0 61.682-50.003 111.685-111.685 111.685-61.682 0-111.685-50.003-111.685-111.685zM111.685 215.093c57.11 0 103.408-46.297 103.408-103.408 0-57.11-46.297-103.408-103.408-103.408-57.11 0-103.408 46.297-103.408 103.408 0 57.11 46.297 103.408 103.408 103.408z" data-fill-palette-color="accent" fill="#e3b23c" stroke="transparent"></path><ellipse rx="110.56822239647006" ry="110.56822239647006" cx="111.68507312774754" cy="111.68507312774754" fill="#e3b23c" stroke="transparent" stroke-width="0" fill-opacity="1" data-fill-palette-color="accent"></ellipse></g><g transform="matrix(1,0,0,1,50.688670963433644,59.06667506122105)"><svg viewBox="0 0 121.9928043286278 105.23679613305299" height="105.23679613305299" width="121.9928043286278"><g><svg xmlns="http://www.w3.org/2000/svg" xmlns:xlink="http://www.w3.org/1999/xlink" version="1.1" x="0" y="0" viewBox="0.507 7.136 98.51299999999999 84.982" enable-background="new 0 0 100 100" xml:space="preserve" height="105.23679613305299" width="121.9928043286278" class="icon-dxe-0" data-fill-palette-color="quaternary" id="dxe-0"><g fill="#ffffff" data-fill-palette-color="quaternary"><path d="M22.048 42.728L25.829 47.455 38.642 65.239A0.42 0.42 0 0 0 38.849 65.402L23.004 90.852 15.187 44.39zM0.507 55.422A0.9 0.9 0 0 1 0.708 54.928L12.118 40.129A0.635 0.635 0 0 1 12.785 39.889L21.121 41.797C21.362 41.887 21.356 41.907 21.425 41.978L14.778 43.589C14.538 43.65 14.484 43.67 14.343 43.778zM19.537 87.812L15.759 82.927A0.4 0.4 0 0 1 15.694 82.816L18.169 81.769zM21.713 88.462C21.429 88.598 21.039 88.784 20.647 88.749L18.907 81.064C18.842 80.779 18.578 80.646 18.309 80.757L15.982 81.742C16.602 80.805 17.908 79.713 18.311 79.263L13.357 50.91 1.485 55.936A1.1 1.1 0 0 1 1.16 56.018L14.382 44.89zM37.129 61.631L46.048 53.846 39.311 64.665zM39.486 86.967L23.765 92.118C30.733 86.326 39.638 78.907 47.736 72.148zM98.23 86.475L40.604 86.768 49.525 70.742zM99.02 85.784L50.25 70.055A46403 46403 0 0 0 69.246 54.201zM49.038 69.889A0.4 0.4 0 0 0 48.934 70.001 13656 13656 0 0 1 24.16 90.65L46.208 55.246zM60.498 60.363L49.812 69.277 47.014 54.795zM55.514 57.355L47.55 54.066 56.358 55.515zM79.921 8.222C79.813 9.295 74.361 58.34 74.361 58.34L69.605 53.3A0.464 0.464 0 0 0 69.001 53.262L61.246 59.737C61.207 59.702 56.319 57.694 56.319 57.694L63.139 42.826C63.143 42.824 79.249 9.773 79.921 8.222M32.224 7.136C32.33 7.194 32.434 7.285 32.531 7.413L60.976 45.447 56.734 54.694 45.979 52.923A0.9 0.9 0 0 0 45.62 53.027L43.274 55.084zM26.009 46.159L31.351 7.717C31.364 7.633 31.381 7.557 31.407 7.489L42.525 55.736 36.616 60.917z" fill="#ffffff" data-fill-palette-color="quaternary"></path></g></svg></g></svg></g></svg></g></svg></g><g></g></svg></g><defs></defs></svg><rect width="245.85078817154928" height="247.2" fill="none" stroke="none" visibility="hidden"></rect></g></svg></g></svg>